<?xml version="1.0" encoding="UTF-8" standalone="no"?>
<!-- Created with Inkscape (http://www.inkscape.org/) -->

<svg
   version="1.1"
   id="svg2"
   width="2829.3333"
   height="2829.3333"
   viewBox="0 0 2829.3333 2829.3333"
   sodipodi:docname="c21680dc-cedc-474d-8341-dbf0b9352e54.eps"
   xmlns:inkscape="http://www.inkscape.org/namespaces/inkscape"
   xmlns:sodipodi="http://sodipodi.sourceforge.net/DTD/sodipodi-0.dtd"
   xmlns="http://www.w3.org/2000/svg"
   xmlns:svg="http://www.w3.org/2000/svg">
  <defs
     id="defs6" />
  <sodipodi:namedview
     id="namedview4"
     pagecolor="#ffffff"
     bordercolor="#000000"
     borderopacity="0.25"
     inkscape:showpageshadow="2"
     inkscape:pageopacity="0.0"
     inkscape:pagecheckerboard="0"
     inkscape:deskcolor="#d1d1d1" />
  <g
     id="g8"
     inkscape:groupmode="layer"
     inkscape:label="ink_ext_XXXXXX"
     transform="matrix(1.3333333,0,0,-1.3333333,0,2829.3333)">
    <g
       id="g10"
       transform="scale(0.1)">
      <path
         d="m 19253.9,3349.8 c 663.5,579.3 971,1535.2 635.1,2457.2 l -1232.8,3382 c -537.3,1474.8 -1523.1,2639.2 -2737.9,3329.2 -185.6,105.8 -377.7,200.6 -573.8,283.4 -53.9,22.9 -108.2,44.9 -162.6,65.3 -202.6,78.3 -409.9,144 -621,196.5 22.6,79.1 42.4,158.8 59.5,238.9 186,869.8 57,1793.1 -258.5,2661.5 -236,649.6 -538,1284 -978.6,1816.6 -440.5,532.6 -1030.5,959.8 -1703.7,1116.8 -572,133.4 -1170.7,68 -1749.82,-30 -594.25,-100.6 -1193.97,-239.1 -1713.02,-545.4 -480.53,-283.6 -871.26,-700 -1195.19,-1154.4 -554.36,-777.5 -935.17,-1714.2 -884.76,-2667.8 28.23,-534 168.58,-1020.5 383.36,-1471 -165.5,-45.8 -328.54,-99.8 -488.67,-161.7 -54.38,-20.4 -108.76,-42.4 -162.65,-65.3 -196.06,-82.8 -388.14,-177.6 -574.23,-283.4 C 4080.29,11828.2 3094.45,10663.8 2557.13,9189 L 1324.34,5807 c -335.871,-922 -28.4,-1877.9 635.1,-2457.2 H 966.77 V 2254.3 H 20246.4 v 1095.5 h -992.5"
         style="fill:#b3b7c7;fill-opacity:1;fill-rule:nonzero;stroke:none"
         id="path12" />
      <path
         d="m 19889,5807 -1232.8,3382 c -537.3,1474.8 -1523.1,2639.2 -2737.9,3329.2 -185.6,105.8 -377.7,200.6 -573.8,283.4 -53.9,22.9 -108.2,44.9 -162.6,65.3 -202.6,78.3 -409.9,144 -621,196.5 22.6,79.1 42.4,158.8 59.5,238.9 186,869.8 57,1793.1 -258.5,2661.5 -236,649.6 -538,1284 -978.6,1816.6 -440.5,532.6 -1030.5,959.8 -1703.7,1116.8 -572,133.4 -1170.7,68 -1749.82,-30 -594.25,-100.6 -1193.97,-239.1 -1713.02,-545.4 -480.53,-283.6 -871.26,-700 -1195.19,-1154.4 -554.36,-777.5 -935.17,-1714.2 -884.76,-2667.8 28.23,-534 168.58,-1020.5 383.36,-1471 -165.5,-45.8 -328.54,-99.8 -488.67,-161.7 -54.38,-20.4 -108.76,-42.4 -162.65,-65.3 -196.06,-82.8 -388.14,-177.6 -574.23,-283.4 C 4080.29,11828.2 3094.45,10663.8 2557.13,9189 L 1324.34,5807 c -335.871,-922 -28.4,-1877.9 635.1,-2457.2 h 3999.95 l -1207.35,6720.1 h 4756.69 187.91 1828.66 179.2 4756.6 L 15253.8,3349.8 h 4000.1 c 663.5,579.3 971,1535.2 635.1,2457.2"
         style="fill:#4e2f47;fill-opacity:1;fill-rule:nonzero;stroke:none"
         id="path14" />
      <path
         d="m 14250.7,14201.1 c -43.2,120.3 -105.6,219.3 -184.3,298.5 l 0.1,-0.4 c -102.5,103.2 -232.5,172.9 -384.1,212.2 v 0 c -35,9.1 -71.2,16.6 -108.4,22.5 -364.2,57.7 -674.5,-79 -979.1,-247.8 l -3.6,-2 c -76.1,-42.2 -151.9,-86.4 -228,-130.1 -210.8,-120.8 -489.8,-304.6 -927.7,-416.6 -228.7,-58.4 -500.7,-97.3 -829,-97.3 -328,0 -599.9,38.8 -828.51,97.2 -209.94,53.6 -383.39,123.8 -530.31,195.6 -159.7,78.1 -288.06,158.1 -397.87,221.1 -16.04,9.2 -32.07,18.4 -48.07,27.6 -365.35,210.5 -725.19,421.6 -1162.69,352.3 -198.48,-31.5 -366.37,-107.7 -492.43,-234.7 l 0.02,0.3 c -78.66,-79.1 -141.01,-178.1 -184.2,-298.4 -205.06,-571.1 73.31,-1266.5 396.41,-1737.9 321.02,-468.4 732.36,-862.8 1126.39,-1268.2 190.22,-195.7 343.59,-410.8 530.55,-605.9 165.08,-172.3 328.09,-346.6 492.84,-519.2 h 187.91 1828.66 179.2 c 164.7,172.6 327.7,346.9 492.8,519.2 187,195.1 340.4,410.2 530.6,605.9 394,405.4 805.3,799.8 1126.4,1268.2 323.1,471.4 601.4,1166.8 396.4,1737.9"
         style="fill:#35192e;fill-opacity:1;fill-rule:nonzero;stroke:none"
         id="path16" />
      <path
         d="m 13920.6,13964.4 c -87.5,122.7 -207.2,195.6 -335.5,217.6 -12.6,-38.6 -27,-76.6 -43.1,-113.9 -53.7,-124.6 -130.9,-234 -208.1,-344 -23.4,-33.4 -81.2,-91.9 -124.4,-149.9 -31.5,-42.3 -55.3,-84.3 -52.3,-115.9 -32.3,344.2 -267.2,629.5 -474.6,906.1 -29.7,39.6 -59.1,80.2 -87.7,121.7 l -3.6,-2 c -15.4,-185.5 -13.5,-372.4 5.6,-557.6 35,-36.1 49.5,-61.9 49.5,-61.9 -14.7,4.7 -29.4,9 -44,12.9 1.8,-15.4 3.8,-30.9 5.9,-46.3 -98.1,22.6 -194.6,51.5 -289,86.1 -431.5,8.7 -779.5,-206.3 -779.5,-206.3 -74.9,73.7 -99.7,156.8 -104.2,226.4 -228.7,-58.4 -500.7,-97.3 -829,-97.3 -328,0 -599.9,38.8 -828.51,97.2 -2.95,-65.7 -24.23,-142 -87.19,-213.6 0,0 -561.39,293.1 -1114.79,73.4 0,0 136.53,291.5 671.67,335.8 -159.7,78.1 -288.06,158.1 -397.87,221.1 -16.04,9.2 -32.07,18.4 -48.07,27.6 -70.56,-59.8 -150.81,-106.2 -240.51,-127.2 -75.79,-17.7 -155.95,-16.8 -228.93,-43.8 -111.67,-41.4 -191.75,-144.1 -234.11,-255.4 -58.85,-154.6 -34.02,-292.8 -45.72,-446.7 -17.44,11.5 -34.24,23.3 -50.47,35.4 l -8.42,6.4 c -97.93,74.9 -174.19,162.2 -237.03,258 -73.15,111.4 -128.16,234.3 -178.06,362.5 -109.32,-30.6 -209.88,-99.6 -286.02,-206.4 -199.53,-279.6 -155.83,-711.7 97.6,-965 185.45,-185.4 431.81,-223.6 628.82,-121.2 75.65,-665.4 329.62,-1192.3 695.2,-1576.8 -19.93,-31 -40.1,-61.7 -60.52,-92.3 151.97,-166.9 284.7,-343.6 440.72,-506.4 201.44,-210.3 399.67,-423.6 602.25,-632.8 h 1828.66 c 202.6,209.2 400.9,422.5 602.3,632.8 178.3,186 324.5,391.1 505.8,577.7 38,39 76.2,78 114.4,116.9 -26.1,35.2 -51.7,70.7 -76.9,106.5 272.8,360.1 460.3,818.9 523.6,1374.2 197,-102.2 443.2,-63.9 628.5,121.4 253.4,253.3 297.1,685.4 97.6,965"
         style="fill:#f8a38f;fill-opacity:1;fill-rule:nonzero;stroke:none"
         id="path18" />
      <path
         d="m 12633.4,11280.4 c 38,39 76.2,78 114.4,116.9 -26.1,35.2 -51.7,70.7 -76.9,106.5 -488.5,-644.8 -1250.7,-973.3 -2064.5,-973.3 -723.55,0 -1406.42,259.8 -1892.21,770.9 -19.93,-31 -40.1,-61.7 -60.52,-92.3 151.97,-166.9 284.7,-343.6 440.72,-506.4 201.44,-210.3 399.67,-423.6 602.25,-632.8 h 1828.66 c 202.6,209.2 400.9,422.5 602.3,632.8 178.3,186 324.5,391.1 505.8,577.7"
         style="fill:#ec7675;fill-opacity:1;fill-rule:nonzero;stroke:none"
         id="path20" />
      <path
         d="m 7332.82,13764.4 c -16.99,-14.1 -20.02,-42.4 -6.77,-63.3 13.21,-20.9 37.73,-26.4 54.74,-12.3 132.56,109.8 317.22,94.5 449.16,-37.4 32.96,-32.9 60.71,-71.1 82.55,-113 -124.91,39.3 -256.27,15.1 -359.14,-70.4 -16.98,-14.1 -19.99,-42.5 -6.73,-63.4 6.44,-10.1 15.49,-16.6 25.06,-19 10.18,-2.6 20.95,-0.5 29.72,6.7 100.61,83.7 234.38,96.3 353,34.2 5.56,-22.8 9.61,-46.2 12.02,-70 11.5,-113.7 -15.34,-222.9 -75.57,-307.3 -13.32,-18.7 -10.4,-47.6 6.52,-64.5 5.54,-5.5 11.91,-9.1 18.42,-10.7 13.37,-3.4 27.4,1.4 36.38,13.9 19.58,27.5 36.22,57.1 49.87,88.4 -0.63,10.7 -1.24,21.5 -1.78,32.4 -6.82,135.8 -6.61,277 1.19,423.5 -2.49,6.1 -5.09,12.1 -7.78,18.1 -97.93,74.9 -174.19,162.2 -237.03,258 -140.3,71.4 -300.64,58.3 -423.83,-43.9"
         style="fill:#ec7675;fill-opacity:1;fill-rule:nonzero;stroke:none"
         id="path22" />
      <path
         d="m 13261,12987.9 c 9,-12.5 23,-17.3 36.4,-13.9 6.5,1.6 12.9,5.2 18.4,10.7 16.9,16.9 19.8,45.8 6.5,64.5 -60.2,84.4 -87.1,193.6 -75.5,307.3 2.4,23.8 6.4,47.2 12,70 118.6,62.1 252.4,49.5 353,-34.2 8.7,-7.2 19.5,-9.3 29.7,-6.7 9.6,2.4 18.6,8.9 25,19 13.3,20.9 10.3,49.3 -6.7,63.4 -102.8,85.5 -234.2,109.7 -359.1,70.4 21.8,41.9 49.6,80.1 82.5,113 132,131.9 316.6,147.2 449.2,37.4 17,-14.1 41.5,-8.6 54.7,12.3 13.3,20.9 10.2,49.2 -6.7,63.3 -160.9,133.5 -385.2,114.9 -545.4,-45.3 -52.6,-52.5 -94.3,-116.1 -123.1,-186.4 7.9,-147.5 8.2,-289.5 1.3,-426.3 -0.5,-10.3 -1.1,-20.6 -1.7,-30.9 13.6,-31 30.1,-60.4 49.5,-87.6"
         style="fill:#ec7675;fill-opacity:1;fill-rule:nonzero;stroke:none"
         id="path24" />
      <path
         d="m 8332.4,14210.6 c -111.67,-41.4 -191.75,-144.1 -234.11,-255.4 -58.85,-154.6 -34.02,-292.8 -45.72,-446.7 -17.44,11.5 -34.24,23.3 -50.47,35.4 l -0.64,-11.7 c -7.8,-146.5 -8.01,-287.7 -1.19,-423.5 239.66,-58.8 468.02,-138.7 697.12,-223.8 439.37,-162.8 896.08,-292.5 1372.41,-314.3 214.7,-9.8 425.7,5.7 634.5,36.5 -64.6,243.1 -68.7,502.7 -42.7,751.6 6.4,-45.9 10.7,-91.7 15.1,-137.3 26.7,-197.9 53.3,-405.6 109,-601.5 245.4,40.9 487.9,101.2 729.5,164.7 235.2,61.8 469.6,123.6 708.5,172.6 246.4,49.7 494.4,91.2 743.8,122.8 81.4,10.6 163.6,19.6 245.7,26.4 6.9,136.8 6.6,278.8 -1.3,426.3 -0.7,13.8 -1.5,27.6 -2.4,41.5 -31.5,-42.3 -55.3,-84.3 -52.3,-115.9 -32.3,344.2 -267.2,629.5 -474.6,906.1 -29.7,39.6 -59.1,80.2 -87.7,121.7 l -3.6,-2 c -15.4,-185.5 -13.5,-372.4 5.6,-557.6 35,-36.1 49.5,-61.9 49.5,-61.9 -14.7,4.7 -29.4,9 -44,12.9 1.8,-15.4 3.8,-30.9 5.9,-46.3 -98.1,22.6 -194.6,51.5 -289,86.1 -431.5,8.7 -779.5,-206.3 -779.5,-206.3 -74.9,73.7 -99.7,156.8 -104.2,226.4 -228.7,-58.4 -500.7,-97.3 -829,-97.3 -328,0 -599.9,38.8 -828.51,97.2 -2.95,-65.7 -24.23,-142 -87.19,-213.6 0,0 -561.39,293.1 -1114.79,73.4 0,0 136.53,291.5 671.67,335.8 -159.7,78.1 -288.06,158.1 -397.87,221.1 -16.04,9.2 -32.07,18.4 -48.07,27.6 -70.56,-59.8 -150.81,-106.2 -240.51,-127.2 -75.79,-17.7 -155.95,-16.8 -228.93,-43.8"
         style="fill:#ee8b84;fill-opacity:1;fill-rule:nonzero;stroke:none"
         id="path26" />
      <path
         d="m 11870.9,13677.2 c 109.7,0 198.5,-162.9 198.5,-363.8 0,-41.4 -3.8,-81.1 -10.7,-118.1 -62.8,5.9 -128.1,9 -195.2,9 -61.9,0 -122.3,-2.6 -180.6,-7.7 -6.8,36.7 -10.4,75.9 -10.4,116.8 0,200.9 88.8,363.8 198.4,363.8"
         style="fill:#35192e;fill-opacity:1;fill-rule:nonzero;stroke:none"
         id="path28" />
      <path
         d="m 9342.24,13677.2 c 109.62,0 198.49,-162.9 198.49,-363.8 0,-40.9 -3.67,-80.1 -10.44,-116.8 -58.34,5.1 -118.7,7.7 -180.62,7.7 -67.12,0 -132.39,-3.1 -195.23,-9 -6.92,37 -10.68,76.7 -10.68,118.1 0,200.9 88.86,363.8 198.48,363.8"
         style="fill:#35192e;fill-opacity:1;fill-rule:nonzero;stroke:none"
         id="path30" />
      <path
         d="m 11323.9,11986.3 c 5.9,4.5 146.2,109.7 335.7,12 211,-108.8 168.6,-362.7 150.6,-437.9 -4.9,-20.2 7.6,-40.5 27.8,-45.4 l 8.9,-1 c 17,0 32.4,11.6 36.6,28.9 43.8,182.7 17,416 -189.4,522.4 -233.9,120.6 -409.3,-13.8 -416.6,-19.6 -16.4,-12.8 -19.2,-36.3 -6.4,-52.7 12.7,-16.5 36.3,-19.4 52.8,-6.7"
         style="fill:#ec7675;fill-opacity:1;fill-rule:nonzero;stroke:none"
         id="path32" />
      <path
         d="m 10286.2,12063.1 c 226.7,16.7 458.4,69.2 640.8,217.4 l -19.5,32.7 c -52.4,96.4 -91.4,199.8 -121.8,306.7 -55.7,195.9 -82.3,403.6 -109,601.5 -4.4,45.6 -8.7,91.4 -15.1,137.3 -26,-248.9 -21.9,-508.5 42.7,-751.6 27.9,-105.4 67.3,-207.7 120.5,-304.8 -154.9,-116.9 -352.4,-181.2 -538.6,-239.2"
         style="fill:#ec7675;fill-opacity:1;fill-rule:nonzero;stroke:none"
         id="path34" />
      <path
         d="m 10675.1,11258.5 h 0.5 c 29.9,0.3 735.6,14 926.6,527.9 8.3,22.4 -3.1,47.3 -25.5,55.6 -22.6,8.4 -47.4,-3.1 -55.7,-25.4 -170.1,-457.9 -839.7,-471.4 -846.4,-471.5 -23.9,-0.3 -43,-19.9 -42.8,-43.8 0.3,-23.7 19.6,-42.8 43.3,-42.8"
         style="fill:#ec7675;fill-opacity:1;fill-rule:nonzero;stroke:none"
         id="path36" />
      <path
         d="m 9699.67,5456.4 c 0,-500.9 406.03,-906.9 906.93,-906.9 500.9,0 906.9,406 906.9,906.9 0,500.9 -406,906.9 -906.9,906.9 -500.9,0 -906.93,-406 -906.93,-906.9"
         style="fill:#ffffff;fill-opacity:1;fill-rule:nonzero;stroke:none"
         id="path38" />
      <path
         d="m 3092.67,6413 c -7.77,0 -15.42,3.6 -20.29,10.4 -8.04,11.2 -5.46,26.7 5.72,34.8 188.45,135.1 383.34,274.9 607.48,373.2 425.19,186.5 943.94,207.6 1387.65,56.3 13.05,-4.4 20.02,-18.6 15.56,-31.7 -4.46,-13 -18.73,-20.1 -31.64,-15.5 -432.28,147.3 -937.49,126.8 -1351.55,-54.8 -219.34,-96.2 -412.06,-234.4 -598.41,-368.1 -4.41,-3.1 -9.5,-4.6 -14.52,-4.6"
         style="fill:#35192e;fill-opacity:1;fill-rule:nonzero;stroke:none"
         id="path40" />
      <path
         d="m 3242.93,5671.7 c -5.44,0 -10.94,1.8 -15.52,5.4 -10.8,8.6 -12.55,24.3 -3.98,35.1 333.86,418.7 712.84,827.3 1220.83,980.5 135.06,40.8 249.87,51.7 351.16,33.6 13.57,-2.5 22.58,-15.4 20.14,-29 -2.41,-13.6 -15.42,-22.6 -28.96,-20.2 -93.35,16.8 -200.61,6.3 -327.92,-32.1 -494.9,-149.3 -867.4,-551.5 -1196.22,-963.9 -4.95,-6.2 -12.21,-9.4 -19.53,-9.4"
         style="fill:#35192e;fill-opacity:1;fill-rule:nonzero;stroke:none"
         id="path42" />
      <path
         d="m 18120.5,6413 c -5,0 -10.1,1.5 -14.5,4.6 -186.4,133.7 -379.2,272 -598.4,368.1 -414.1,181.7 -919.4,202.1 -1351.6,54.8 -12.9,-4.6 -27.2,2.5 -31.6,15.5 -4.5,13.1 2.5,27.3 15.6,31.7 443.7,151.3 962.4,130.2 1387.6,-56.3 224,-98.2 419,-238 607.5,-373.2 11.2,-8 13.8,-23.6 5.7,-34.8 -4.9,-6.8 -12.5,-10.4 -20.3,-10.4"
         style="fill:#35192e;fill-opacity:1;fill-rule:nonzero;stroke:none"
         id="path44" />
      <path
         d="m 17970.3,5671.7 c -7.4,0 -14.6,3.2 -19.6,9.4 -328.8,412.4 -701.3,814.6 -1196.2,963.9 -127.3,38.4 -234.6,49 -327.9,32.1 -13.5,-2.4 -26.6,6.6 -29,20.2 -2.4,13.6 6.6,26.5 20.1,29 101.4,18.2 216.2,7.2 351.2,-33.6 508,-153.2 887,-561.8 1220.9,-980.5 8.5,-10.8 6.8,-26.5 -4,-35.1 -4.6,-3.6 -10.1,-5.4 -15.5,-5.4"
         style="fill:#35192e;fill-opacity:1;fill-rule:nonzero;stroke:none"
         id="path46" />
      <path
         d="m 8504.48,10488.3 c -5.78,0 -11.55,2 -16.28,6.1 -711.89,612 -1338.53,1317.4 -1862.48,2096.5 -7.67,11.5 -4.65,27 6.8,34.7 11.4,7.7 26.91,4.6 34.61,-6.8 521.44,-775.5 1145.1,-1477.5 1853.62,-2086.6 10.42,-9 11.62,-24.7 2.66,-35.2 -4.95,-5.7 -11.92,-8.7 -18.93,-8.7"
         style="fill:#35192e;fill-opacity:1;fill-rule:nonzero;stroke:none"
         id="path48" />
      <path
         d="m 6698.58,10229 -10.52,2.4 -620.19,289.2 c -12.48,5.8 -17.89,20.7 -12.06,33.2 5.84,12.4 20.73,17.8 33.15,12 l 620.2,-289.2 c 12.47,-5.8 17.88,-20.7 12.05,-33.2 -4.24,-9 -13.22,-14.4 -22.63,-14.4"
         style="fill:#35192e;fill-opacity:1;fill-rule:nonzero;stroke:none"
         id="path50" />
      <path
         d="m 7590.35,10229 c -4.9,0 -9.84,1.5 -14.18,4.5 l -640.78,443.7 c -11.33,7.8 -14.15,23.4 -6.31,34.7 7.82,11.3 23.34,14.2 34.72,6.3 l 640.78,-443.7 c 11.32,-7.9 14.15,-23.4 6.3,-34.7 -4.84,-7 -12.61,-10.8 -20.53,-10.8"
         style="fill:#35192e;fill-opacity:1;fill-rule:nonzero;stroke:none"
         id="path52" />
      <path
         d="m 12669.1,10488.3 c -7.1,0 -14,3 -19,8.7 -8.9,10.5 -7.7,26.2 2.7,35.2 708.5,609.1 1332.2,1311.1 1853.6,2086.6 7.7,11.4 23.2,14.5 34.6,6.8 11.5,-7.7 14.5,-23.2 6.8,-34.7 -523.9,-779.1 -1150.6,-1484.5 -1862.5,-2096.5 -4.7,-4.1 -10.5,-6.1 -16.2,-6.1"
         style="fill:#35192e;fill-opacity:1;fill-rule:nonzero;stroke:none"
         id="path54" />
      <path
         d="m 14474.9,10229 c -9.4,0 -18.3,5.4 -22.6,14.4 -5.8,12.5 -0.4,27.4 12.1,33.2 l 620.2,289.2 c 12.4,5.8 27.3,0.4 33.1,-12 5.8,-12.5 0.4,-27.4 -12,-33.2 l -620.2,-289.2 -10.6,-2.4"
         style="fill:#35192e;fill-opacity:1;fill-rule:nonzero;stroke:none"
         id="path56" />
      <path
         d="m 13583.2,10229 c -7.9,0 -15.7,3.8 -20.6,10.8 -7.8,11.3 -5,26.8 6.4,34.7 l 640.7,443.7 c 11.4,7.9 26.9,5 34.7,-6.3 7.9,-11.3 5.1,-26.9 -6.3,-34.7 l -640.7,-443.7 c -4.4,-3 -9.3,-4.5 -14.2,-4.5"
         style="fill:#35192e;fill-opacity:1;fill-rule:nonzero;stroke:none"
         id="path58" />
      <path
         d="m 6648.3,13321.6 c -8.74,0 -17.24,4.6 -21.8,12.8 -259.1,464.2 -263.02,1066.2 -10.04,1533.7 95.62,176.7 213.55,312.4 350.5,403.2 267.7,177.7 647.8,203.8 1042.78,71.6 234.86,-78.6 454.57,-200.4 667.04,-318.2 92.86,-51.4 188.89,-104.7 284.68,-153.4 364.53,-185.7 690.5,-285.4 996.53,-305 13.77,-0.8 24.2,-12.7 23.32,-26.4 -0.88,-13.8 -13.15,-23.9 -26.48,-23.3 -312.99,20 -645.31,121.4 -1016.03,310.2 -96.56,49.2 -192.98,102.6 -286.21,154.3 -210.5,116.7 -428.16,237.4 -658.68,314.5 -380.32,127.2 -744.58,103.3 -999.37,-65.8 -130.09,-86.3 -242.51,-216 -334.18,-385.4 -245.06,-452.9 -241.27,-1036 9.7,-1485.7 6.72,-12 2.41,-27.2 -9.63,-33.9 l -12.13,-3.2"
         style="fill:#35192e;fill-opacity:1;fill-rule:nonzero;stroke:none"
         id="path60" />
      <path
         d="m 10704.2,14236.3 c -12.8,0 -23.7,9.7 -24.9,22.7 -1.2,13.7 8.9,25.8 22.6,27.1 326.9,29.9 646.2,109.3 949,235.8 171.4,71.6 339.3,159.4 501.6,244.3 144.1,75.4 293.1,153.4 444.8,220.1 394.9,174.1 734.6,232.1 1038.8,177.6 384.8,-68.9 697.9,-348.2 761.6,-679.2 2.6,-13.5 -6.3,-26.6 -19.8,-29.2 -13.6,-2.3 -26.6,6.3 -29.2,19.8 -59.9,311.1 -356.5,574.1 -721.4,639.5 -293.9,52.8 -624.3,-4.2 -1009.9,-174.1 -150.1,-66.1 -298.4,-143.7 -441.8,-218.7 -163.3,-85.4 -332.1,-173.7 -505.5,-246.2 -307.5,-128.4 -631.7,-209 -963.7,-239.4 l -2.2,-0.1"
         style="fill:#35192e;fill-opacity:1;fill-rule:nonzero;stroke:none"
         id="path62" />
      <path
         d="m 10609.1,15286.1 c -219,0 -446.3,23.2 -678.17,70.2 -665.92,134.9 -1284.55,434.2 -1882.82,723.7 -12.4,6 -17.59,20.9 -11.6,33.3 6.04,12.4 20.93,17.5 33.32,11.6 595.5,-288.1 1211.26,-586.1 1870.99,-719.7 733.68,-148.6 1420.18,-56.2 1933.18,260.3 11.8,7.2 27.1,3.6 34.3,-8.2 7.3,-11.7 3.6,-27.1 -8.1,-34.3 -361,-222.7 -805.4,-336.9 -1291.1,-336.9"
         style="fill:#35192e;fill-opacity:1;fill-rule:nonzero;stroke:none"
         id="path64" />
      <path
         d="m 7126.04,16688.3 c -7.99,0 -15.84,3.8 -20.66,10.9 -7.75,11.4 -4.78,26.9 6.63,34.6 358.46,243.2 811.25,400.3 1345.79,466.8 474.67,59.2 959.44,42.9 1428.19,27.2 13.78,-0.5 24.55,-12 24.09,-25.8 -0.44,-13.8 -13.28,-25.9 -25.75,-24.1 -466.89,15.7 -949.62,31.8 -1420.34,-26.8 -526.65,-65.5 -972.1,-219.8 -1323.97,-458.5 -4.29,-2.9 -9.16,-4.3 -13.98,-4.3"
         style="fill:#35192e;fill-opacity:1;fill-rule:nonzero;stroke:none"
         id="path66" />
      <path
         d="m 13528.8,16476.1 -12.7,3.4 c -730.2,429.2 -1664.8,482.3 -2438.9,138.6 -12.8,-5.7 -27.3,0.1 -32.9,12.7 -5.6,12.6 0.1,27.3 12.6,32.9 788.7,350 1740.7,296 2484.5,-141.2 11.9,-6.9 15.9,-22.2 8.9,-34.1 -4.7,-7.9 -13,-12.3 -21.5,-12.3"
         style="fill:#35192e;fill-opacity:1;fill-rule:nonzero;stroke:none"
         id="path68" />
      <path
         d="m 16156.4,7150.8 c -6.6,0 -13.2,2.6 -18.1,7.7 -9.5,10 -9.1,25.8 0.9,35.3 237.9,226.5 533.1,384.1 853.6,456 13.5,3.1 26.8,-5.4 29.8,-18.8 3,-13.5 -5.4,-26.8 -18.9,-29.8 -311.7,-70 -598.8,-223.3 -830.1,-443.6 -4.8,-4.6 -11,-6.8 -17.2,-6.8"
         style="fill:#35192e;fill-opacity:1;fill-rule:nonzero;stroke:none"
         id="path70" />
      <path
         d="m 5036.2,7115.1 c -8.87,0 -17.44,4.8 -21.97,13.1 -119.69,221.3 -295.62,408.9 -508.85,542.5 -11.66,7.3 -15.2,22.7 -7.89,34.4 7.36,11.6 22.75,15.1 34.4,7.9 220.48,-138.2 402.46,-332.2 526.23,-561 6.56,-12.2 2.05,-27.3 -10.08,-33.9 l -11.84,-3"
         style="fill:#35192e;fill-opacity:1;fill-rule:nonzero;stroke:none"
         id="path72" />
      <path
         d="m 6240.88,3324.8 c -11.84,0 -22.37,8.5 -24.54,20.6 L 5082.12,9658.5 c -2.44,13.5 6.57,26.5 20.14,28.9 13.52,2.4 26.51,-6.6 28.97,-20.1 L 6265.46,3354.2 c 2.43,-13.6 -6.58,-26.5 -20.15,-29 l -4.43,-0.4"
         style="fill:#35192e;fill-opacity:1;fill-rule:nonzero;stroke:none"
         id="path74" />
      <path
         d="m 14833.3,3324.8 -4.4,0.4 c -13.6,2.5 -22.6,15.4 -20.1,29 l 523.6,2914.5 c 2.4,13.6 15.5,22.7 28.9,20.2 13.6,-2.5 22.6,-15.4 20.2,-29 l -523.6,-2914.5 c -2.2,-12.1 -12.7,-20.6 -24.6,-20.6"
         style="fill:#35192e;fill-opacity:1;fill-rule:nonzero;stroke:none"
         id="path76" />
      <path
         d="M 9540.73,2924.4 H 1290.06 c -13.79,0 -24.94,11.2 -24.94,25 0,13.7 11.15,24.9 24.94,24.9 h 8250.67 c 13.78,0 24.94,-11.2 24.94,-24.9 0,-13.8 -11.16,-25 -24.94,-25"
         style="fill:#35192e;fill-opacity:1;fill-rule:nonzero;stroke:none"
         id="path78" />
      <path
         d="m 19819.6,2497.6 h -6063.9 c -13.8,0 -24.9,11.2 -24.9,25 0,13.7 11.1,24.9 24.9,24.9 h 6063.9 c 13.8,0 25,-11.2 25,-24.9 0,-13.8 -11.2,-25 -25,-25"
         style="fill:#35192e;fill-opacity:1;fill-rule:nonzero;stroke:none"
         id="path80" />
    </g>
  </g>
</svg>
